<?xml version="1.0" encoding="utf-8"?>
<!-- Generator: Adobe Illustrator 16.0.0, SVG Export Plug-In . SVG Version: 6.00 Build 0)  -->
<!DOCTYPE svg PUBLIC "-//W3C//DTD SVG 1.1//EN" "http://www.w3.org/Graphics/SVG/1.1/DTD/svg11.dtd">
<svg version="1.1" id="Layer_1" xmlns="http://www.w3.org/2000/svg" xmlns:xlink="http://www.w3.org/1999/xlink" x="0px" y="0px"
	 width="40px" height="30px" viewBox="0 0 40 30" enable-background="new 0 0 40 30" xml:space="preserve">
<linearGradient id="SVGID_1_" gradientUnits="userSpaceOnUse" x1="9.7749" y1="3.8442" x2="27.0766" y2="21.1459">
	<stop  offset="0" style="stop-color:#F26522"/>
	<stop  offset="1" style="stop-color:#ED1C24"/>
</linearGradient>
<path fill="url(#SVGID_1_)" d="M17.543,16.124l1.441,2.509c0,0-3.701,6.885-11.582,3.736c0,0-5.818-1.922-5.284-9.714
	c0,0,0.927-6.619,8.416-7.473c0,0,4.394-0.844,8.237,4.329c0,0,5.016,8.481,6.403,9.655c1.389,1.174,4.057,3.084,9.287-0.647
	c0,0,4.483-7.318-4.269-10.627c0,0-5.019-0.468-7.366,4.229l-1.388-2.824c0,0,2.988-4.644,8.433-3.952c0,0,7.472-0.136,8.219,8.818
	c0,0,1.282,6.866-7.897,9.031c0,0-5.231,0.99-8.541-4.24C18.344,13.722,16.423,8.705,12.9,7.958s-7.686,1.601-8.219,5.337
	c-0.534,3.736,2.757,6.523,4.056,6.938C9.356,20.43,13.647,22.95,17.543,16.124z"/>
</svg>
