<?xml version="1.0" encoding="utf-8"?>
<!-- Generator: Adobe Illustrator 16.0.0, SVG Export Plug-In . SVG Version: 6.00 Build 0)  -->
<!DOCTYPE svg PUBLIC "-//W3C//DTD SVG 1.1//EN" "http://www.w3.org/Graphics/SVG/1.1/DTD/svg11.dtd">
<svg version="1.1" id="Layer_1" xmlns="http://www.w3.org/2000/svg" xmlns:xlink="http://www.w3.org/1999/xlink" x="0px" y="0px"
	 width="50px" height="40px" viewBox="0 0 50 40" enable-background="new 0 0 50 40" xml:space="preserve">
<rect x="-5.5" y="-4.333" fill="#070404" width="66.5" height="50"/>
<path fill="#FDFDFE" d="M21.065,22.496l1.869,3.253c0,0-4.799,8.927-15.018,4.845c0,0-7.543-2.492-6.852-12.596
	c0,0,1.202-8.582,10.913-9.689c0,0,5.697-1.095,10.681,5.612c0,0,6.504,10.998,8.302,12.52c1.801,1.521,5.26,3.998,12.042-0.84
	c0,0,5.813-9.489-5.535-13.779c0,0-6.507-0.606-9.551,5.484l-1.8-3.662c0,0,3.875-6.022,10.935-5.125c0,0,9.688-0.176,10.656,11.433
	c0,0,1.663,8.903-10.24,11.71c0,0-6.783,1.284-11.074-5.498c-4.29-6.783-6.781-13.289-11.349-14.257s-9.966,2.076-10.657,6.92
	c-0.693,4.845,3.575,8.459,5.259,8.997C10.449,28.078,16.013,31.347,21.065,22.496z"/>
</svg>
