<?xml version="1.0" encoding="utf-8"?>
<!-- Generator: Adobe Illustrator 16.0.0, SVG Export Plug-In . SVG Version: 6.00 Build 0)  -->
<!DOCTYPE svg PUBLIC "-//W3C//DTD SVG 1.1//EN" "http://www.w3.org/Graphics/SVG/1.1/DTD/svg11.dtd">
<svg version="1.1" xmlns="http://www.w3.org/2000/svg" xmlns:xlink="http://www.w3.org/1999/xlink" x="0px" y="0px" width="24px"
	 height="24px" viewBox="0 0 24 24" enable-background="new 0 0 24 24" xml:space="preserve">
<g id="Layer_1" display="none">
	
		<image display="inline" overflow="visible" width="1200" height="900" xlink:href="../original.jpg"  transform="matrix(0.72 0 0 0.72 -109 -306)">
	</image>
</g>
<g id="Layer_2">
	<g>
		<path fill="#FFFFFF" stroke="#686868" stroke-miterlimit="10" d="M17.5,18.176c0,1.565-2.586,3.324-5.064,3.324H11.62
			c-2.478,0-5.12-1.759-5.12-3.324V5.269C6.5,3.703,9.142,1.5,11.62,1.5h0.816c2.479,0,5.064,2.203,5.064,3.769V18.176z"/>
		<path fill="#FFFFFF" stroke="#686868" stroke-miterlimit="10" d="M19.805,16.051c0,3.979-3.492,7.196-7.805,7.196
			c-4.31,0-7.806-3.218-7.806-7.196c0-3.973,3.496-7.193,7.806-7.193C16.313,8.857,19.805,12.078,19.805,16.051z"/>
	</g>
</g>
<g id="Layer_3">
</g>
</svg>
