<?xml version="1.0" encoding="utf-8"?>
<!-- Generator: Adobe Illustrator 16.0.0, SVG Export Plug-In . SVG Version: 6.00 Build 0)  -->
<!DOCTYPE svg PUBLIC "-//W3C//DTD SVG 1.1//EN" "http://www.w3.org/Graphics/SVG/1.1/DTD/svg11.dtd">
<svg version="1.1" xmlns="http://www.w3.org/2000/svg" xmlns:xlink="http://www.w3.org/1999/xlink" x="0px" y="0px" width="24px"
	 height="24px" viewBox="0 0 24 24" enable-background="new 0 0 24 24" xml:space="preserve">
<g id="Layer_1" display="none">
	
		<image display="inline" overflow="visible" width="1200" height="900" xlink:href="../original.jpg"  transform="matrix(0.72 0 0 0.72 -109.666 -268.333)">
	</image>
</g>
<g id="Layer_2">
	
		<image display="none" overflow="visible" width="512" height="512" xlink:href="C:\Users\USER5\Downloads\Users-Name-icon.png"  transform="matrix(0.0417 0 0 0.0417 1.3135 1.313)">
	</image>
	<path fill="none" stroke="#8E8E8E" stroke-miterlimit="10" d="M9.532,12.909c0,0,0.813,0.888-0.271,1.749
		c0,0-9.754,3.681-5.509,7.843h16.167c0,0,7.406-3.148-4.606-7.709c0,0-0.903-1.077-0.091-2.07c1.625-1.985,3.147-5.745,2.097-8.234
		c-0.471-1.112-1.688-2.183-2.763-2.71c-1.131-0.554-2.557-0.867-3.775-0.413C9.62,1.796,8.631,2.791,7.943,3.794
		C7.155,4.941,7.067,6.347,7.282,7.692C7.575,9.531,8.552,11.35,9.532,12.909z"/>
</g>
</svg>
